<svg xmlns="http://www.w3.org/2000/svg" xmlns:xlink="http://www.w3.org/1999/xlink" version="1.1" width="256" height="256" viewBox="0 0 256 256" xml:space="preserve">

<defs>
</defs>
<g style="stroke: none; stroke-width: 0; stroke-dasharray: none; stroke-linecap: butt; stroke-linejoin: miter; stroke-miterlimit: 10; fill: none; fill-rule: nonzero; opacity: 1;" transform="translate(1.4065934065934016 1.4065934065934016) scale(2.81 2.81)" >
	<path d="M 34.792 46.624 V 28.834 c 0 -0.596 0.237 -1.152 0.647 -1.552 c 0.136 -0.138 0.291 -0.261 0.466 -0.362 l 13.492 -7.789 c -2.233 -1.842 -5.016 -2.838 -7.912 -2.838 l 0.022 -0.022 c -5.386 0.009 -9.952 3.452 -11.654 8.247 l 0.028 0.007 c -0.474 1.33 -0.722 2.734 -0.721 4.157 l 0.002 14.697 L 34.792 46.624 z" style="stroke: none; stroke-width: 1; stroke-dasharray: none; stroke-linecap: butt; stroke-linejoin: miter; stroke-miterlimit: 10; fill: rgb(0,0,0); fill-rule: nonzero; opacity: 1;" transform=" matrix(1 0 0 1 0 0) " stroke-linecap="round" />
	<path d="M 22.964 50.55 l 12.729 7.346 l 5.626 -3.254 l -15.407 -8.895 c -0.517 -0.298 -0.879 -0.781 -1.02 -1.336 c -0.052 -0.187 -0.081 -0.382 -0.081 -0.584 V 28.249 c -2.711 1.013 -4.965 2.925 -6.414 5.433 l -0.008 -0.03 c -2.686 4.669 -1.987 10.345 1.315 14.216 l 0.02 -0.021 C 20.639 48.923 21.731 49.84 22.964 50.55 z" style="stroke: none; stroke-width: 1; stroke-dasharray: none; stroke-linecap: butt; stroke-linejoin: miter; stroke-miterlimit: 10; fill: rgb(0,0,0); fill-rule: nonzero; opacity: 1;" transform=" matrix(1 0 0 1 0 0) " stroke-linecap="round" />
	<path d="M 51.527 53 L 36.12 61.895 c -0.517 0.298 -1.116 0.371 -1.667 0.216 c -0.188 -0.049 -0.371 -0.121 -0.546 -0.222 l -13.492 -7.789 c -0.479 2.854 0.05 5.763 1.498 8.271 l -0.03 -0.008 c 2.701 4.661 7.966 6.893 12.969 5.969 l -0.008 -0.028 c 1.388 -0.255 2.729 -0.741 3.96 -1.454 l 12.727 -7.351 L 51.527 53 z" style="stroke: none; stroke-width: 1; stroke-dasharray: none; stroke-linecap: butt; stroke-linejoin: miter; stroke-miterlimit: 10; fill: rgb(0,0,0); fill-rule: nonzero; opacity: 1;" transform=" matrix(1 0 0 1 0 0) " stroke-linecap="round" />
	<path d="M 38.473 36.963 l 15.407 -8.895 c 0.517 -0.298 1.116 -0.371 1.667 -0.216 c 0.188 0.049 0.371 0.121 0.546 0.222 l 13.492 7.789 c 0.479 -2.854 -0.05 -5.763 -1.498 -8.271 l 0.03 0.008 c -2.701 -4.661 -7.966 -6.893 -12.969 -5.969 l 0.008 0.028 c -1.388 0.254 -2.729 0.741 -3.96 1.454 l -12.727 7.351 L 38.473 36.963 z" style="stroke: none; stroke-width: 1; stroke-dasharray: none; stroke-linecap: butt; stroke-linejoin: miter; stroke-miterlimit: 10; fill: rgb(0,0,0); fill-rule: nonzero; opacity: 1;" transform=" matrix(1 0 0 1 0 0) " stroke-linecap="round" />
	<polygon points="38.46,48.76 45,52.53 51.54,48.76 51.54,41.21 45,37.43 38.46,41.21 " style="stroke: none; stroke-width: 1; stroke-dasharray: none; stroke-linecap: butt; stroke-linejoin: miter; stroke-miterlimit: 10; fill: rgb(0,0,0); fill-rule: nonzero; opacity: 1;" transform="  matrix(1 0 0 1 0 0) "/>
	<path d="M 76.051 0 H 13.95 C 6.258 0 0 6.258 0 13.95 v 62.101 C 0 83.742 6.258 90 13.95 90 h 62.101 C 83.742 90 90 83.742 90 76.051 V 13.95 C 90 6.258 83.742 0 76.051 0 z M 75.326 58.455 c -2.341 4.099 -6.32 7.003 -10.938 7.985 l -0.005 0.03 c -2.238 6.864 -8.66 11.511 -15.888 11.511 c -4.72 0.022 -9.224 -1.972 -12.384 -5.48 l -0.028 0.01 c -7.063 1.494 -14.299 -1.744 -17.913 -8.004 c -2.379 -4.077 -2.904 -8.975 -1.446 -13.465 l -0.023 -0.019 c -4.825 -5.37 -5.639 -13.255 -2.025 -19.515 c 2.341 -4.099 6.32 -7.002 10.938 -7.985 l 0.005 -0.03 c 2.238 -6.864 8.66 -11.511 15.888 -11.511 c 4.72 -0.022 9.224 1.972 12.384 5.48 l 0.028 -0.01 c 7.063 -1.494 14.299 1.744 17.913 8.004 c 2.379 4.077 2.904 8.975 1.446 13.465 l 0.023 0.019 C 78.126 44.31 78.94 52.195 75.326 58.455 z" style="stroke: none; stroke-width: 1; stroke-dasharray: none; stroke-linecap: butt; stroke-linejoin: miter; stroke-miterlimit: 10; fill: rgb(0,0,0); fill-rule: nonzero; opacity: 1;" transform=" matrix(1 0 0 1 0 0) " stroke-linecap="round" />
	<path d="M 70.276 42.115 c -0.915 -1.075 -2.007 -1.993 -3.239 -2.703 l -12.729 -7.346 l -5.626 3.254 l 15.407 8.895 c 0.517 0.298 0.879 0.781 1.02 1.336 c 0.052 0.187 0.081 0.382 0.081 0.584 v 15.579 c 2.711 -1.013 4.965 -2.925 6.414 -5.433 l 0.008 0.03 h 0 c 2.686 -4.669 1.987 -10.345 -1.315 -14.216 L 70.276 42.115 z" style="stroke: none; stroke-width: 1; stroke-dasharray: none; stroke-linecap: butt; stroke-linejoin: miter; stroke-miterlimit: 10; fill: rgb(0,0,0); fill-rule: nonzero; opacity: 1;" transform=" matrix(1 0 0 1 0 0) " stroke-linecap="round" />
	<path d="M 55.208 43.338 v 17.79 c 0 0.597 -0.237 1.152 -0.647 1.552 c -0.136 0.138 -0.291 0.261 -0.466 0.362 l -13.492 7.789 c 2.233 1.842 5.016 2.838 7.912 2.838 l -0.022 0.022 c 5.386 -0.009 9.952 -3.452 11.654 -8.247 l -0.028 -0.007 c 0.474 -1.33 0.722 -2.734 0.721 -4.156 l -0.002 -14.697 L 55.208 43.338 z" style="stroke: none; stroke-width: 1; stroke-dasharray: none; stroke-linecap: butt; stroke-linejoin: miter; stroke-miterlimit: 10; fill: rgb(0,0,0); fill-rule: nonzero; opacity: 1;" transform=" matrix(1 0 0 1 0 0) " stroke-linecap="round" />
</g>
</svg>